<svg width="16" height="20" viewBox="0 0 16 20" fill="none" xmlns="http://www.w3.org/2000/svg">
<path d="M7.60254 1.33334C7.60254 1.33334 8.06127 2.41334 10.777 3.49334C13.4009 4.55334 15.1624 4.27334 15.1624 4.27334C15.1624 4.27334 15.6578 8.35334 13.2724 13.0733C10.887 17.7933 7.60254 19.3333 7.60254 19.3333C7.60254 19.3333 4.29968 17.8133 1.93264 13.0933C-0.434412 8.37334 0.0426669 4.29334 0.0426669 4.29334C0.0426669 4.29334 1.80419 4.55334 4.42813 3.51334C7.14381 2.41334 7.60254 1.33334 7.60254 1.33334Z" fill="#2964F0"/>
<path fill-rule="evenodd" clip-rule="evenodd" d="M8.72031 9.89797L2.07342 20L12.2778 8.26533L7.69053 7.95917L13.5885 0L4.22665 9.38775L8.72031 9.89797Z" fill="white"/>
</svg>
